<svg width="109" height="40" viewBox="0 0 109 40" fill="none" xmlns="http://www.w3.org/2000/svg">
<path d="M12.3028 39.9958C8.02207 39.9958 3.52478 39.1846 0 37.2311V2.76468C3.46958 0.866396 7.96686 6.34551e-05 12.3028 6.34551e-05C16.6387 6.34551e-05 21.0298 0.811189 24.4951 2.76468V15.989H15.7681V6.99018C14.7404 6.55701 13.4919 6.39564 12.2476 6.39564C11.0033 6.39564 9.8609 6.55701 8.77799 6.99018V33.0056C9.8057 33.4388 10.999 33.6002 12.2476 33.6002C13.4961 33.6002 14.6852 33.4388 15.7681 33.0056V24.0111H24.4951V37.2354C21.0808 39.1337 16.5835 39.9448 12.3028 40V39.9958Z" fill="#F7DD43"/>
<path d="M40.8622 39.9957C36.2545 39.9957 31.8124 39.0189 28.2876 37.0145V2.926C31.7572 0.976747 36.2035 0 40.8622 0C45.5209 0 49.8568 0.92154 53.3264 2.926V37.0145C49.912 39.0189 45.4147 39.9405 40.8622 39.9957ZM44.6036 7.10053C43.5759 6.66736 42.3273 6.45078 40.8112 6.45078C39.2952 6.45078 38.1018 6.66736 37.0699 7.10053V32.8442C38.0976 33.3326 39.3461 33.5492 40.8112 33.5492C42.2764 33.5492 43.5207 33.3326 44.6036 32.8442V7.10053Z" fill="#F7DD43"/>
<path d="M68.555 25.3615H66.2235V39.5073H57.3903V0.488399H68.555C73.8676 0.488399 77.8765 1.57131 81.0191 3.79235V22.0575C77.9317 24.2276 73.8634 25.3615 68.555 25.3615ZM72.2411 7.20672C71.43 6.61218 70.3428 6.34039 68.4997 6.34039H66.1131V19.5095H68.4997C70.2876 19.5095 71.3705 19.2377 72.2411 18.6984V7.20672Z" fill="#F7DD43"/>
<path d="M99.4966 39.5073V25.3615H92.9949V39.5073H84.2169V2.87079C87.4147 0.972501 91.912 0 96.2479 0C100.584 0 105.026 0.976748 108.224 2.87079V21.1891V39.5073H99.4966ZM99.4966 6.77353C98.5751 6.34037 97.437 6.12378 96.2436 6.12378C95.0503 6.12378 93.9122 6.34037 92.9906 6.77353V19.1825H99.4924V6.77353H99.4966Z" fill="#F7DD43"/>
</svg>
